<svg xmlns="http://www.w3.org/2000/svg" width="66.601" height="67.101" viewBox="0 0 66.601 67.101">
  <defs>
    <style>
      .cls-1 {
        fill: #fecb32;
      }
    </style>
  </defs>
  <g id="Group_1382" data-name="Group 1382" transform="translate(-17.6 -16.3)">
    <g id="Group_1381" data-name="Group 1381">
      <path id="Path_303" data-name="Path 303" class="cls-1" d="M82.85,42.75h.35a.946.946,0,0,0,.7-.25.959.959,0,0,0,.3-.7,1,1,0,0,0-.25-.65,36.5,36.5,0,0,0-6.1-6.55,39.6,39.6,0,0,0-7.8-5.05A44.389,44.389,0,0,0,51.6,25.2V17.05a.861.861,0,0,0-.2-.55.725.725,0,0,0-1,0,.765.765,0,0,0-.25.55V25.2a41.2,41.2,0,0,0-9.5,1.2,42.079,42.079,0,0,0-8.9,3.15,39.6,39.6,0,0,0-7.8,5.05,36.989,36.989,0,0,0-6.15,6.6.931.931,0,0,0-.2.6.959.959,0,0,0,.3.7,1,1,0,0,0,.65.25h.4a41.046,41.046,0,0,1,14.5,2.6,1.108,1.108,0,0,0,.35.05h.1a118.365,118.365,0,0,1,16.25-1.2V71.25a1,1,0,0,0-.25.65v6.85a2.684,2.684,0,0,1-.75,1.9,2.654,2.654,0,0,1-1.95.8,2.732,2.732,0,0,1-2.7-2.7.992.992,0,0,0-1.65-.7.959.959,0,0,0-.3.7A4.7,4.7,0,0,0,47.2,83.4a4.61,4.61,0,0,0,4.65-4.65V71.9a1,1,0,0,0-.25-.65V44.2a118.367,118.367,0,0,1,16.25,1.2H68a.616.616,0,0,0,.35-.1,41.492,41.492,0,0,1,14.5-2.55Z"/>
    </g>
  </g>
</svg>
